<svg width="28" height="28" viewBox="0 0 28 28" fill="none" xmlns="http://www.w3.org/2000/svg">
    <path
        d="M21.0466 3.428C20.5595 3.428 20.1658 3.82262 20.1658 4.30884V10.8992L11.6772 4.11769C10.5868 3.31702 9.21268 3.20251 8.00154 3.81557C6.79304 4.42863 6.07252 5.60278 6.07252 6.9575V21.0446C6.07252 22.3993 6.79304 23.5744 8.00242 24.1874C8.51066 24.4446 9.04973 24.575 9.60289 24.575C10.3454 24.575 11.0624 24.3363 11.7063 23.8624L20.1658 17.095V23.6862C20.1658 24.1724 20.5595 24.5671 21.0466 24.5671C21.5337 24.5671 21.9275 24.1724 21.9275 23.6862V4.30884C21.9275 3.82262 21.5337 3.428 21.0466 3.428ZM19.4162 15.4399L10.6343 22.4654C10.09 22.8644 9.40206 22.9217 8.79781 22.6151C8.18563 22.3042 7.8333 21.7325 7.8333 21.0446V6.9575C7.8333 6.27045 8.18475 5.69791 8.79693 5.38786C9.06382 5.25309 9.34129 5.18615 9.61258 5.18615C9.96579 5.18615 10.3093 5.29801 10.6062 5.51558L19.4462 12.5781C19.9033 12.9128 20.1649 13.4298 20.1649 13.9971C20.1649 14.5643 19.9024 15.0814 19.4153 15.439L19.4162 15.4399Z"
        fill="white" />
</svg>