<svg width="16" height="22" viewBox="0 0 16 22" fill="none" xmlns="http://www.w3.org/2000/svg">
    <path
        d="M0.939538 0.18777C1.42669 0.18777 1.82046 0.582421 1.82046 1.06869V7.65971L10.3099 0.877528C11.4004 0.0767746 12.7747 -0.0377447 13.9859 0.575374C15.1945 1.18849 15.9151 2.36276 15.9151 3.71761V17.8061C15.9151 19.161 15.1945 20.3361 13.985 20.9492C13.4768 21.2065 12.9376 21.3368 12.3844 21.3368C11.6418 21.3368 10.9247 21.0981 10.2808 20.6242L1.82046 13.8561V20.448C1.82046 20.9342 1.42669 21.3289 0.939538 21.3289C0.452391 21.3289 0.0586205 20.9342 0.0586205 20.448V1.06869C0.0586205 0.582421 0.452391 0.18777 0.939538 0.18777ZM2.57012 12.2008L11.3529 19.227C11.8973 19.6261 12.5853 19.6833 13.1896 19.3768C13.8018 19.0658 14.1542 18.4941 14.1542 17.8061V3.71761C14.1542 3.03049 13.8027 2.4579 13.1905 2.14781C12.9235 2.01303 12.646 1.94608 12.3747 1.94608C12.0215 1.94608 11.6779 2.05796 11.3811 2.27555L2.54016 9.33873C2.08297 9.67348 1.82134 10.1906 1.82134 10.7579C1.82134 11.3252 2.08385 11.8423 2.571 12.2L2.57012 12.2008Z"
        fill="white" />
</svg>