<svg width="22" height="23" viewBox="0 0 22 23" fill="none" xmlns="http://www.w3.org/2000/svg">
    <path
        d="M20.0475 12.556C19.8723 14.6278 18.9939 16.5775 17.5583 18.0815C16.1226 19.5855 14.2159 20.5535 12.1545 20.8248C10.093 21.0961 8.00076 20.6545 6.22483 19.5732C4.44888 18.492 3.096 16.8359 2.39062 14.8801C1.68526 12.9241 1.66979 10.7858 2.34681 8.81991C3.02382 6.854 4.35262 5.17864 6.11274 4.07178C7.87286 2.96492 9.95855 2.4931 12.0236 2.7346C14.0888 2.97609 16.0093 3.91638 17.4666 5.39948H14.6294C14.3884 5.39948 14.1572 5.49522 13.9868 5.66564C13.8164 5.83607 13.7207 6.06722 13.7207 6.30824C13.7207 6.54926 13.8164 6.78041 13.9868 6.95084C14.1572 7.12126 14.3884 7.21701 14.6294 7.21701H18.3944C18.8419 7.21677 19.271 7.03889 19.5875 6.72247C19.9039 6.40603 20.0817 5.97693 20.082 5.52943V1.76442C20.082 1.5234 19.9862 1.29225 19.8158 1.12182C19.6454 0.951397 19.4142 0.855652 19.1732 0.855652C18.9322 0.855652 18.7011 0.951397 18.5307 1.12182C18.3603 1.29225 18.2645 1.5234 18.2645 1.76442V3.65283C16.4367 2.01953 14.1113 1.05057 11.6646 0.902645C9.21782 0.754724 6.79264 1.4365 4.78136 2.8377C2.77009 4.2389 1.29029 6.2776 0.581289 8.62406C-0.127711 10.9706 -0.0244492 13.4876 0.874373 15.768C1.7732 18.0486 3.41502 19.9592 5.53431 21.1909C7.6536 22.4226 10.1264 22.9036 12.5529 22.5557C14.9793 22.2078 17.2175 21.0517 18.9053 19.2741C20.5932 17.4966 21.6322 15.2017 21.8541 12.7605C21.8658 12.6339 21.8511 12.5063 21.8108 12.3858C21.7705 12.2652 21.7055 12.1544 21.62 12.0604C21.5345 11.9663 21.4303 11.8911 21.3142 11.8395C21.1981 11.788 21.0725 11.7612 20.9453 11.7608C20.7236 11.7582 20.5089 11.8381 20.3429 11.9851C20.177 12.1321 20.0717 12.3356 20.0475 12.556Z"
        fill="white" />
</svg>