<svg width="21" height="21" viewBox="0 0 21 21" fill="none" xmlns="http://www.w3.org/2000/svg">
    <path
        d="M20.7611 19.3567L15.787 14.3825C17.1425 12.7247 17.809 10.6093 17.6485 8.47388C17.4881 6.33843 16.513 4.34635 14.925 2.90968C13.3369 1.473 11.2575 0.701647 9.11672 0.755174C6.97593 0.8087 4.9376 1.68301 3.42336 3.19725C1.90912 4.71149 1.03481 6.74982 0.981286 8.89061C0.92776 11.0314 1.69911 13.1108 3.13579 14.6989C4.57246 16.2869 6.56454 17.262 8.69999 17.4224C10.8354 17.5829 12.9508 16.9164 14.6086 15.5609L19.5828 20.535C19.74 20.6868 19.9505 20.7708 20.169 20.7689C20.3875 20.767 20.5965 20.6794 20.751 20.5249C20.9055 20.3704 20.9931 20.1614 20.995 19.9429C20.9969 19.7244 20.9129 19.5139 20.7611 19.3567ZM9.33868 15.7792C8.02014 15.7792 6.73121 15.3882 5.63488 14.6557C4.53856 13.9231 3.68407 12.8819 3.17949 11.6638C2.6749 10.4456 2.54288 9.10518 2.80012 7.81197C3.05735 6.51877 3.69229 5.33088 4.62464 4.39853C5.55699 3.46618 6.74488 2.83124 8.03808 2.57401C9.33129 2.31677 10.6717 2.44879 11.8899 2.95338C13.108 3.45796 14.1492 4.31245 14.8818 5.40877C15.6143 6.5051 16.0053 7.79403 16.0053 9.11257C16.0033 10.88 15.3003 12.5746 14.0505 13.8244C12.8007 15.0742 11.1061 15.7772 9.33868 15.7792Z"
        fill="white" />
</svg>