<svg width="28" height="28" viewBox="0 0 28 28" fill="none" xmlns="http://www.w3.org/2000/svg">
    <path
        d="M25.4021 18.3296L22.1111 15.0386C22.0194 14.9409 21.909 14.8627 21.7864 14.8085C21.6638 14.7543 21.5316 14.7254 21.3977 14.7233C21.2637 14.7212 21.1307 14.7461 21.0065 14.7964C20.8823 14.8467 20.7695 14.9215 20.6748 15.0163C20.5801 15.1111 20.5054 15.2239 20.4551 15.3482C20.4049 15.4724 20.3801 15.6054 20.3823 15.7394C20.3844 15.8734 20.4135 16.0056 20.4678 16.1281C20.522 16.2506 20.6004 16.361 20.6981 16.4526L22.9881 18.7466C21.7432 18.7494 20.5104 18.5032 19.3621 18.0223C18.2139 17.5414 17.1735 16.8357 16.3021 15.9466C16.2053 15.8575 16.0917 15.7887 15.9678 15.7444C15.844 15.7001 15.7125 15.6811 15.5812 15.6885C15.4498 15.696 15.3214 15.7298 15.2033 15.7879C15.0853 15.8459 14.9801 15.9271 14.8941 16.0266L14.8811 16.0466C14.713 16.2422 14.6269 16.4952 14.6409 16.7527C14.6549 17.0102 14.7678 17.2524 14.9561 17.4286C16.0059 18.4903 17.2578 19.3309 18.6378 19.9008C20.0178 20.4707 21.4981 20.7583 22.9911 20.7466L20.6981 23.0396C20.5936 23.1295 20.5088 23.24 20.4491 23.3642C20.3893 23.4884 20.3559 23.6236 20.3509 23.7613C20.3458 23.899 20.3693 24.0363 20.4199 24.1645C20.4704 24.2927 20.5469 24.4091 20.6446 24.5064C20.7423 24.6036 20.859 24.6796 20.9874 24.7296C21.1158 24.7796 21.2532 24.8025 21.3909 24.7969C21.5286 24.7913 21.6637 24.7573 21.7876 24.697C21.9115 24.6367 22.0217 24.5515 22.1111 24.4466L25.4021 21.1556C25.7764 20.7806 25.9867 20.2725 25.9867 19.7426C25.9867 19.2128 25.7764 18.7046 25.4021 18.3296Z"
        fill="white" />
    <path
        d="M22.9881 8.7466L20.6981 11.0366C20.6786 11.0629 20.6606 11.0903 20.6441 11.1186C20.4827 11.3154 20.4031 11.5666 20.4218 11.8204C20.4404 12.0741 20.5559 12.3111 20.7443 12.4821C20.9327 12.6532 21.1796 12.7453 21.434 12.7394C21.6884 12.7335 21.9308 12.6301 22.1111 12.4506L23.8171 10.7466L25.4031 9.1616C25.6713 8.89136 25.8567 8.5502 25.9377 8.1782C26.0186 7.80621 25.9917 7.41884 25.8601 7.0616C25.763 6.78815 25.6066 6.53955 25.4021 6.3336L22.1111 3.0466C22.0198 2.94741 21.9094 2.8677 21.7865 2.81227C21.6636 2.75684 21.5308 2.72682 21.396 2.72403C21.2613 2.72124 21.1273 2.74573 21.0022 2.79602C20.8772 2.84632 20.7635 2.92138 20.6682 3.01671C20.5729 3.11203 20.4978 3.22564 20.4475 3.35072C20.3972 3.47579 20.3727 3.60975 20.3755 3.74453C20.3783 3.87931 20.4083 4.01213 20.4638 4.13502C20.5192 4.2579 20.5989 4.36831 20.6981 4.4596L22.9911 6.7516C18.0581 6.7636 15.3541 9.4256 12.9021 12.2256C10.6501 9.6836 7.98108 7.1466 3.46808 6.7926L2.98708 6.7466C2.72187 6.7466 2.46751 6.85196 2.27998 7.03949C2.09244 7.22703 1.98708 7.48138 1.98708 7.7466C1.9922 8.01021 2.0992 8.2616 2.28564 8.44804C2.47208 8.63448 2.72347 8.74148 2.98708 8.7466C3.05908 8.7466 3.27408 8.7796 3.27408 8.7796C7.17008 9.0746 9.40608 11.2686 11.5811 13.7466C9.41908 16.2126 7.19808 18.4466 3.33408 18.7066L2.93408 18.7276C2.67086 18.744 2.42494 18.8644 2.25044 19.0621C2.07594 19.2599 1.98714 19.5189 2.00358 19.7821C2.02003 20.0453 2.14036 20.2912 2.33812 20.4657C2.53588 20.6402 2.79486 20.729 3.05808 20.7126C3.21408 20.7056 3.46808 20.6996 3.59308 20.6896C8.61308 20.3026 11.3361 17.0896 13.7641 14.2806C16.2161 11.4466 18.5321 8.7646 22.9881 8.7466Z"
        fill="white" />
</svg>