<svg width="28" height="28" viewBox="0 0 28 28" fill="none" xmlns="http://www.w3.org/2000/svg">
    <path
        d="M25.2509 12.2485L23.6478 10.352C23.3413 9.99194 23.0937 9.31979 23.0937 8.83967V6.79921C23.0937 5.52692 22.0682 4.48268 20.8187 4.48268H18.8148C18.355 4.48268 17.6831 4.23063 17.3295 3.91856L15.467 2.28618C14.6536 1.57803 13.3216 1.57803 12.4964 2.28618L10.6457 3.93057C10.2921 4.23063 9.62018 4.48268 9.16045 4.48268H7.12115C5.87163 4.48268 4.84608 5.52692 4.84608 6.79921V8.85168C4.84608 9.31979 4.59854 9.99194 4.30385 10.352L2.71248 12.2605C2.02878 13.0887 2.02878 14.4329 2.71248 15.2612L4.30385 17.1695C4.59854 17.5296 4.84608 18.2019 4.84608 18.6699V20.7224C4.84608 21.9946 5.87163 23.0389 7.12115 23.0389H9.16045C9.62018 23.0389 10.2921 23.2909 10.6457 23.6031L12.5082 25.2354C13.3216 25.9436 14.6536 25.9436 15.4788 25.2354L17.3412 23.6031C17.6949 23.2909 18.355 23.0389 18.8265 23.0389H20.8304C22.08 23.0389 23.1056 21.9946 23.1056 20.7224V18.6819C23.1056 18.2138 23.3531 17.5296 23.6595 17.1695L25.2627 15.2731C25.9465 14.4449 25.9465 13.0766 25.2509 12.2485ZM18.8855 11.4923L13.1919 17.2896C13.0269 17.4576 12.8029 17.5537 12.5672 17.5537C12.3314 17.5537 12.1074 17.4576 11.9424 17.2896L9.08973 14.385C8.74788 14.0369 8.74788 13.4608 9.08973 13.1127C9.43158 12.7646 9.9974 12.7646 10.3392 13.1127L12.5672 15.3811L17.6359 10.22C17.9778 9.87192 18.5436 9.87192 18.8855 10.22C19.2273 10.5681 19.2273 11.1442 18.8855 11.4923Z"
        fill="url(#paint0_linear_1_37)" />
    <defs>
        <linearGradient id="paint0_linear_1_37" x1="13.9864" y1="1.75567" x2="13.9864" y2="25.7671"
            gradientUnits="userSpaceOnUse">
            <stop stop-color="#138BD7" />
            <stop offset="1" stop-color="#62AAFB" />
        </linearGradient>
    </defs>
</svg>