<svg width="24" height="24" viewBox="0 0 24 24" fill="none" xmlns="http://www.w3.org/2000/svg">
    <path
        d="M20.9583 9.6875L19.5416 8.04166C19.2708 7.72916 19.052 7.14583 19.052 6.72916V4.95833C19.052 3.85416 18.1458 2.94791 17.0416 2.94791H15.2708C14.8645 2.94791 14.2708 2.72916 13.9583 2.45833L12.3125 1.04166C11.5937 0.427081 10.4166 0.427081 9.68746 1.04166L8.05204 2.46875C7.73954 2.72916 7.14579 2.94791 6.73954 2.94791H4.93746C3.83329 2.94791 2.92704 3.85416 2.92704 4.95833V6.73958C2.92704 7.14583 2.70829 7.72916 2.44788 8.04166L1.04163 9.69791C0.437459 10.4167 0.437459 11.5833 1.04163 12.3021L2.44788 13.9583C2.70829 14.2708 2.92704 14.8542 2.92704 15.2604V17.0417C2.92704 18.1458 3.83329 19.0521 4.93746 19.0521H6.73954C7.14579 19.0521 7.73954 19.2708 8.05204 19.5417L9.69788 20.9583C10.4166 21.5729 11.5937 21.5729 12.3229 20.9583L13.9687 19.5417C14.2812 19.2708 14.8645 19.0521 15.2812 19.0521H17.052C18.1562 19.0521 19.0625 18.1458 19.0625 17.0417V15.2708C19.0625 14.8646 19.2812 14.2708 19.552 13.9583L20.9687 12.3125C21.5729 11.5937 21.5729 10.4062 20.9583 9.6875ZM15.3333 9.03125L10.302 14.0625C10.1562 14.2083 9.95829 14.2917 9.74996 14.2917C9.54163 14.2917 9.34371 14.2083 9.19788 14.0625L6.67704 11.5417C6.37496 11.2396 6.37496 10.7396 6.67704 10.4375C6.97913 10.1354 7.47913 10.1354 7.78121 10.4375L9.74996 12.4062L14.2291 7.92708C14.5312 7.625 15.0312 7.625 15.3333 7.92708C15.6354 8.22916 15.6354 8.72916 15.3333 9.03125Z"
        fill="url(#paint0_linear_103_12)" />
    <defs>
        <linearGradient id="paint0_linear_103_12" x1="11.0041" y1="0.581247" x2="11.0041"
            y2="21.4198" gradientUnits="userSpaceOnUse">
            <stop stop-color="#138BD7" />
            <stop offset="1" stop-color="#62AAFB" />
        </linearGradient>
    </defs>
</svg>