<svg width="28" height="28" viewBox="0 0 28 28" fill="none" xmlns="http://www.w3.org/2000/svg">
    <path
        d="M22.7962 6.05056C22.7033 5.95765 22.593 5.88395 22.4716 5.83367C22.3502 5.78339 22.2201 5.75751 22.0887 5.75751C21.9573 5.75751 21.8272 5.78339 21.7058 5.83367C21.5844 5.88395 21.4741 5.95765 21.3812 6.05056C21.2883 6.14347 21.2146 6.25378 21.1643 6.37517C21.114 6.49656 21.0881 6.62667 21.0881 6.75806C21.0881 6.88946 21.114 7.01957 21.1643 7.14096C21.2146 7.26235 21.2883 7.37265 21.3812 7.46556C23.0482 9.13647 23.9843 11.4003 23.9843 13.7606C23.9843 16.1208 23.0482 18.3847 21.3812 20.0556C21.1936 20.2432 21.0881 20.4977 21.0881 20.7631C21.0881 21.0285 21.1936 21.283 21.3812 21.4706C21.5688 21.6582 21.8233 21.7637 22.0887 21.7637C22.3541 21.7637 22.6086 21.6582 22.7962 21.4706C24.838 19.4242 25.9846 16.6514 25.9846 13.7606C25.9846 10.8698 24.838 8.09699 22.7962 6.05056Z"
        fill="white" />
    <path
        d="M20.0892 9.05157C19.9963 8.95833 19.8859 8.88431 19.7644 8.83372C19.6429 8.78313 19.5126 8.75698 19.381 8.75675C19.2494 8.75651 19.119 8.78221 18.9973 8.83237C18.8756 8.88252 18.765 8.95616 18.6717 9.04907C18.5785 9.14198 18.5045 9.25235 18.4539 9.37386C18.4033 9.49538 18.3771 9.62568 18.3769 9.7573C18.3767 9.88893 18.4024 10.0193 18.4525 10.141C18.5027 10.2627 18.5763 10.3733 18.6692 10.4666C19.542 11.3407 20.0322 12.5254 20.0322 13.7606C20.0322 14.9958 19.542 16.1805 18.6692 17.0546C18.5763 17.1478 18.5027 17.2585 18.4525 17.3802C18.4024 17.5019 18.3767 17.6323 18.3769 17.7639C18.3771 17.8955 18.4033 18.0258 18.4539 18.1473C18.5045 18.2688 18.5785 18.3792 18.6717 18.4721C18.86 18.6598 19.1152 18.7649 19.381 18.7644C19.5126 18.7642 19.6429 18.738 19.7644 18.6875C19.8859 18.6369 19.9963 18.5628 20.0892 18.4696C21.3365 17.2199 22.0371 15.5263 22.0371 13.7606C22.0371 11.9949 21.3365 10.3013 20.0892 9.05157Z"
        fill="white" />
    <path
        d="M15.8092 1.96055C12.7685 2.53182 10.0639 4.2504 8.25518 6.76055H6.98918C5.66375 6.76266 4.39321 7.29013 3.45598 8.22735C2.51876 9.16458 1.99129 10.4351 1.98918 11.7605V15.7606C1.99129 17.086 2.51876 18.3566 3.45598 19.2938C4.39321 20.231 5.66375 20.7585 6.98918 20.7606H8.25518C10.0642 23.2704 12.7687 24.9888 15.8092 25.5606C15.8688 25.5722 15.9295 25.5779 15.9902 25.5776C16.2554 25.5776 16.5098 25.4722 16.6973 25.2847C16.8848 25.0972 16.9902 24.8428 16.9902 24.5776V2.94655C16.9906 2.79968 16.9586 2.65454 16.8965 2.52143C16.8345 2.38832 16.7438 2.27052 16.6311 2.1764C16.5184 2.08227 16.3863 2.01413 16.2442 1.97683C16.1022 1.93952 15.9536 1.93396 15.8092 1.96055ZM14.9892 23.2956C12.7836 22.5925 10.8871 21.1518 9.61818 19.2156C9.52752 19.0761 9.4035 18.9615 9.25735 18.882C9.11119 18.8026 8.94753 18.7608 8.78118 18.7606H6.98918C6.19353 18.7606 5.43047 18.4445 4.86786 17.8819C4.30525 17.3193 3.98918 16.5562 3.98918 15.7606V11.7605C3.98918 10.9649 4.30525 10.2018 4.86786 9.63923C5.43047 9.07662 6.19353 8.76055 6.98918 8.76055H8.78918C8.95535 8.76053 9.11889 8.7191 9.26503 8.64001C9.41116 8.56091 9.53529 8.44665 9.62618 8.30755C10.8925 6.37179 12.7861 4.93049 14.9892 4.22555V23.2956Z"
        fill="white" />
</svg>